<?xml version="1.0" encoding="utf-8"?>
<!-- Generator: Adobe Illustrator 25.1.0, SVG Export Plug-In . SVG Version: 6.00 Build 0)  -->
<svg version="1.1" id="Laag_1" xmlns="http://www.w3.org/2000/svg" xmlns:xlink="http://www.w3.org/1999/xlink" x="0px" y="0px"
	 viewBox="212 508 988 348" xml:space="preserve">
<style type="text/css">
	.st0{fill:#008453;}
	.st1{fill:#FFFFFF;stroke:#000000;stroke-width:11.6184;}
	.st2{fill:#008453;stroke:#1D1D1B;stroke-width:1.6;}
	.st3{fill:#FFFFFF;}
</style>
<g>
	<polyline class="st0" points="383.9,768.7 359.8,768.7 359.8,548 282.6,548 226.7,836.3 1136.7,836.3 1154.4,743.9 1127.1,743.9 	
		"/>
	<polyline class="st1" points="408.3,746.4 384.1,746.4 384.1,525.6 306.9,525.6 251,814 1161.1,814 1178.8,721.6 1151.4,721.6 	"/>
	<g>
		<g>
			<polygon points="385.9,615.3 385.9,559.9 298,559.9 290,615.2 			"/>
		</g>
	</g>
	<g>
		<path d="M469.1,747.8c-0.3,1.4-0.6,1.6-1.8,1.6h-27.3c-1.4,0-1.7-0.3-1.7-1.8V691c0-1.6,0.3-1.8,1.7-1.8h7.7
			c1.4,0,1.7,0.3,1.7,1.8v47.9h19.9c1.2,0,1.5,0.4,1.5,1.1c0,0.3-0.1,0.8-0.2,1.1L469.1,747.8z"/>
		<path d="M497.9,747.6c0,1.6-0.3,1.8-1.7,1.8h-20.3c-1.4,0-1.7-0.3-1.7-1.8v-4.8c0-1.6,0.3-1.8,1.7-1.8h4.5v-43.4h-4.5
			c-1.4,0-1.7-0.3-1.7-1.8V691c0-1.6,0.3-1.8,1.7-1.8h20.3c1.4,0,1.7,0.3,1.7,1.8v4.8c0,1.6-0.3,1.8-1.7,1.8h-4.5V741h4.5
			c1.4,0,1.7,0.3,1.7,1.8V747.6z"/>
		<path d="M521.7,689.1c8,0,19.3,1.2,19.3,15.4c0,8.8-5.3,11.6-8.4,13.3c3.9,1.1,10.3,4.4,10.3,14.5c0,14.7-9.8,17.1-20.5,17.1
			h-13.6c-1.4,0-1.7-0.4-1.7-1.8V691c0-1.6,0.3-1.8,1.7-1.8H521.7z M520.8,714c4.9,0,9-1.3,9-8.3c0-5.5-3.6-7.4-8.1-7.4h-3.5V714
			H520.8z M521.2,740.2c5.7,0,10.5-1.1,10.5-8.5c0-7.4-4.8-8.4-10.3-8.4h-3.1v16.9H521.2z"/>
		<path d="M563.3,747.6c0,1.6-0.3,1.8-1.7,1.8h-7.7c-1.4,0-1.7-0.3-1.7-1.8V691c0-1.6,0.3-1.8,1.7-1.8h13.4c6.4,0,19.3,0.4,19.3,17
			c0,11.4-6.4,14.6-9.4,16.3l12.3,23.5c0.2,0.4,0.7,1.1,0.7,1.7c0,0.5-0.8,0.8-1.7,1.1l-6.9,2.1c-0.3,0.1-0.8,0.2-1.2,0.2
			c-0.4,0-1.1-1.1-1.9-2.7l-11.2-23.7h-4V747.6z M565.4,715.3c5.4,0,9.9-0.9,9.9-9c0-7.7-4.7-7.9-9-7.9h-3.1v16.9H565.4z"/>
		<path d="M603.5,747.6c-0.3,1.6-0.5,1.8-1.7,1.8h-8.4c-1.1,0-1.6-0.2-1.7-0.8c0-0.4,0.2-1.1,0.3-1.5l16.3-56.7
			c0.3-1.1,0.4-1.3,1.8-1.3h8.6c1.2,0,1.4,0.4,1.7,1.4l16.2,56.8c0.1,0.4,0.3,1.1,0.3,1.4c0,0.5-0.8,0.7-1.7,0.7h-9.3
			c-0.8,0-1-0.3-1.4-1.8l-3.6-14.3h-14.2L603.5,747.6z M615.6,710.3c-0.7-3.4-1.4-8.6-1.8-12.3h-0.2c-0.3,3.7-1.1,8.8-1.9,12.3
			l-3.6,15.1H619L615.6,710.3z"/>
		<path class="st0" d="M693.5,700.1c-0.2,0.5-0.6,0.9-0.9,0.9c-0.5,0-5.6-3.9-11.6-3.9c-3.8,0-7.8,1.6-7.8,6.9
			c0,6.7,9.7,7.9,17,13.6c4.2,3.3,7.1,8,7.1,14.7c0,11.2-7.4,18.6-17.9,18.6c-8.4,0-17.3-3.9-17.3-5.3c0-0.3,0.2-0.9,0.4-1.4
			l1.9-5.8c0.2-0.5,0.6-0.9,0.9-0.9c0.5,0,6.6,3.9,13.7,3.9c4.6,0,7.4-2.6,7.4-8.1c0-7.8-8.4-8.6-16.9-14.1
			c-4.4-2.8-7.2-6.3-7.2-13.6c0-12.7,8.6-18,18.2-18c7.9,0,16,3.9,16,5.4c0,0.3-0.1,0.6-0.4,1.3L693.5,700.1z"/>
		<path class="st0" d="M743.3,747.6c0,1.6-0.3,1.8-1.7,1.8h-7.7c-1.4,0-1.7-0.3-1.7-1.8V723h-15.7v24.6c0,1.6-0.3,1.8-1.7,1.8H707
			c-1.4,0-1.7-0.3-1.7-1.8V691c0-1.6,0.3-1.8,1.7-1.8h7.7c1.4,0,1.7,0.3,1.7,1.8v22.5h15.7V691c0-1.6,0.3-1.8,1.7-1.8h7.7
			c1.4,0,1.7,0.3,1.7,1.8V747.6z"/>
		<path class="st0" d="M775.8,747.6c0,1.6-0.3,1.8-1.7,1.8h-20.3c-1.4,0-1.7-0.3-1.7-1.8v-4.8c0-1.6,0.3-1.8,1.7-1.8h4.5v-43.4h-4.5
			c-1.4,0-1.7-0.3-1.7-1.8V691c0-1.6,0.3-1.8,1.7-1.8h20.3c1.4,0,1.7,0.3,1.7,1.8v4.8c0,1.6-0.3,1.8-1.7,1.8h-4.6V741h4.6
			c1.4,0,1.7,0.3,1.7,1.8V747.6z"/>
		<path class="st0" d="M795.1,747.6c0,1.6-0.3,1.8-1.7,1.8h-7.7c-1.4,0-1.7-0.3-1.7-1.8V691c0-1.6,0.3-1.8,1.7-1.8h13.4
			c6.7,0,19.3,0,19.3,16.5c0,14.5-10.2,19.6-18.9,19.6h-4.4V747.6z M797.7,716.1c4.9,0,9.5-0.9,9.5-9.8c0-7.7-4.4-7.9-8.7-7.9h-3.4
			v17.7H797.7z"/>
		<path class="st0" d="M836.4,747.6c0,1.6-0.3,1.8-1.7,1.8H827c-1.4,0-1.7-0.3-1.7-1.8V691c0-1.6,0.3-1.8,1.7-1.8h13.4
			c6.7,0,19.3,0,19.3,16.5c0,14.5-10.2,19.6-18.9,19.6h-4.4V747.6z M839,716.1c4.9,0,9.5-0.9,9.5-9.8c0-7.7-4.4-7.9-8.7-7.9h-3.4
			v17.7H839z"/>
		<path class="st0" d="M887.3,747.6c0,1.6-0.3,1.8-1.7,1.8h-20.3c-1.4,0-1.7-0.3-1.7-1.8v-4.8c0-1.6,0.3-1.8,1.7-1.8h4.5v-43.4h-4.5
			c-1.4,0-1.7-0.3-1.7-1.8V691c0-1.6,0.3-1.8,1.7-1.8h20.3c1.4,0,1.7,0.3,1.7,1.8v4.8c0,1.6-0.3,1.8-1.7,1.8h-4.5V741h4.5
			c1.4,0,1.7,0.3,1.7,1.8V747.6z"/>
		<path class="st0" d="M934.4,747.6c0,1.6-0.2,1.8-1.7,1.8h-5.5c-1.2,0-1.4-0.2-1.9-1.2l-15.1-30c-2.5-4.9-3.9-8-4.7-12h-0.2
			c0,1.1,0.2,5.6,0.2,9.7v31.7c0,1.6-0.3,1.8-1.7,1.8h-6c-1.4,0-1.7-0.3-1.7-1.8V691c0-1.6,0.3-1.8,1.7-1.8h6.8
			c1.2,0,1.4,0.2,1.9,1.1l13.6,27.3c2.3,4.7,3.9,9.2,4.9,12.8h0.2c0-2.8-0.2-9-0.2-11.4V691c0-1.6,0.3-1.8,1.7-1.8h6
			c1.4,0,1.7,0.3,1.7,1.8V747.6z"/>
		<path class="st0" d="M982.4,744c0,3.7-9.8,6.9-16.5,6.9c-14.6,0-22.2-10-22.2-31.3c0-20.9,7.5-31.9,22.3-31.9
			c7.4,0,15.4,3.9,15.4,5.4c0,0.3-0.1,0.6-0.4,1.3l-2.7,5.8c-0.2,0.5-0.6,0.9-0.9,0.9c-0.5,0-5.1-3.9-10.8-3.9
			c-8.4,0-11.2,8.4-11.2,21.8c0,13.7,2.2,22.4,11.1,22.4c3.1,0,5.2-1.1,6-1.4v-12.8h-6.2c-1.4,0-1.7-0.3-1.7-1.8v-5.8
			c0-1.6,0.3-1.8,1.7-1.8h14.4c1.4,0,1.7,0.3,1.7,1.8V744z"/>
		<path class="st0" d="M1030.2,689.1c8,0,19.3,1.2,19.3,15.4c0,8.8-5.3,11.6-8.4,13.3c3.9,1.1,10.3,4.4,10.3,14.5
			c0,14.7-9.8,17.1-20.5,17.1h-13.6c-1.4,0-1.7-0.4-1.7-1.8V691c0-1.6,0.3-1.8,1.7-1.8H1030.2z M1029.3,714c4.9,0,9-1.3,9-8.3
			c0-5.5-3.6-7.4-8.1-7.4h-3.5V714H1029.3z M1029.7,740.2c5.7,0,10.5-1.1,10.5-8.5c0-7.4-4.8-8.4-10.3-8.4h-3.1v16.9H1029.7z"/>
		<path class="st0" d="M1066.3,750.9c-4.2,0-7.9-3.7-7.9-8.4c0-4.7,3.6-8.4,7.9-8.4c4.3,0,7.9,3.7,7.9,8.4
			C1074.2,747.2,1070.6,750.9,1066.3,750.9z"/>
		<path class="st0" d="M1097.9,748.7c-0.3,1.2-0.4,1.5-1.8,1.5h-9.4c-1.4,0-1.6-0.3-1.8-1.5l-14.6-55.9c-0.2-0.6-0.4-1.3-0.4-1.8
			c0-0.6,0.9-0.8,1.6-1l8.3-1.5c0.3,0,0.6-0.2,1.2-0.2c0.4,0,0.9,0,1.2,1.8l7,35.4c0.6,2.8,1.6,9.4,2.1,13.5h0.2
			c0.5-4,1.8-10.6,2.5-13.5l8-35.4c0.4-1.8,0.8-1.8,1.2-1.8c0.7,0,0.9,0.2,1.2,0.2l7.3,1c0.7,0.2,1.6,0.4,1.6,1
			c0,0.5-0.2,1.2-0.4,1.8L1097.9,748.7z"/>
		<path class="st0" d="M1116.9,750.9c-4.2,0-7.9-3.7-7.9-8.4c0-4.7,3.6-8.4,7.9-8.4c4.3,0,7.9,3.7,7.9,8.4
			C1124.8,747.2,1121.2,750.9,1116.9,750.9z"/>
	</g>
</g>
<polygon class="st2" points="321.9,570.7 321.8,582.7 303.2,582.7 301.7,593.6 321.9,593.7 321.9,604.5 354,604.5 354,593.8 
	377,593.9 377,582.7 354,582.7 354,570.7 "/>
<g>
	<path class="st3" d="M330.4,598.6V574h7.6v18.9h10.4v5.8H330.4z"/>
</g>
</svg>
